<svg width="112" height="24" viewBox="0 0 112 24" fill="none" xmlns="http://www.w3.org/2000/svg">
<path d="M11.9997 15.75L7.59119 18.4425L8.78969 13.4175L4.86719 10.0575L10.0159 9.645L11.9997 4.875L13.9834 9.645L19.1329 10.0575L15.2097 13.4175L16.4082 18.4425L11.9997 15.75Z" fill="black"/>
<path d="M33.9997 15.75L29.5912 18.4425L30.7897 13.4175L26.8672 10.0575L32.0159 9.645L33.9997 4.875L35.9834 9.645L41.1329 10.0575L37.2097 13.4175L38.4082 18.4425L33.9997 15.75Z" fill="black"/>
<path d="M55.9997 15.75L51.5912 18.4425L52.7897 13.4175L48.8672 10.0575L54.0159 9.645L55.9997 4.875L57.9834 9.645L63.1329 10.0575L59.2097 13.4175L60.4082 18.4425L55.9997 15.75Z" fill="black"/>
<path d="M77.9997 15.75L73.5912 18.4425L74.7897 13.4175L70.8672 10.0575L76.0159 9.645L77.9997 4.875L79.9834 9.645L85.1329 10.0575L81.2097 13.4175L82.4082 18.4425L77.9997 15.75Z" fill="black"/>
<path d="M100.001 16.695L94.7114 19.656L95.8927 13.71L91.4414 9.594L97.4617 8.88L100.001 3.375L102.541 8.88L108.561 9.594L104.11 13.71L105.291 19.656L100.001 16.695ZM100.001 14.976L103.186 16.7587L102.475 13.179L105.154 10.7003L101.53 10.2705L100.001 6.95625L98.4727 10.2712L94.8479 10.7003L97.5277 13.179L96.8159 16.7587L100.001 14.976Z" fill="black"/>
</svg>
