<svg width="48" height="48" viewBox="0 0 48 48" fill="none" xmlns="http://www.w3.org/2000/svg">
<circle cx="24" cy="24" r="24" fill="#004B93"/>
<path d="M18 31.5C18 29.9087 18.6321 28.3826 19.7574 27.2574C20.8826 26.1321 22.4087 25.5 24 25.5C25.5913 25.5 27.1174 26.1321 28.2426 27.2574C29.3679 28.3826 30 29.9087 30 31.5H28.5C28.5 30.3065 28.0259 29.1619 27.182 28.318C26.3381 27.4741 25.1935 27 24 27C22.8065 27 21.6619 27.4741 20.818 28.318C19.9741 29.1619 19.5 30.3065 19.5 31.5H18ZM24 24.75C21.5138 24.75 19.5 22.7362 19.5 20.25C19.5 17.7638 21.5138 15.75 24 15.75C26.4862 15.75 28.5 17.7638 28.5 20.25C28.5 22.7362 26.4862 24.75 24 24.75ZM24 23.25C25.6575 23.25 27 21.9075 27 20.25C27 18.5925 25.6575 17.25 24 17.25C22.3425 17.25 21 18.5925 21 20.25C21 21.9075 22.3425 23.25 24 23.25Z" fill="white"/>
</svg>
