<svg width="122" height="48" viewBox="0 0 122 48" fill="none" xmlns="http://www.w3.org/2000/svg">
<path d="M0 0H47.0316V48H0V0Z"/>
<path d="M34.4133 25.1707C34.4133 31.3132 29.2776 36.2927 22.9422 36.2927C16.6069 36.2927 11.4711 31.3132 11.4711 25.1707C11.4711 19.0282 16.6069 14.0488 22.9422 14.0488C29.2776 14.0488 34.4133 19.0282 34.4133 25.1707Z" fill="white"/>
<path d="M26.0012 25.3659V19.122H18.3538V25.3659C18.3538 26.228 19.0386 26.9268 19.8833 26.9268H24.4717C25.3164 26.9268 26.0012 26.228 26.0012 25.3659ZM17.589 17.561H29.0602C29.9049 17.561 30.5896 18.2598 30.5896 19.122V21.4634C30.5896 22.3255 29.9049 23.0244 29.0602 23.0244H27.5307V25.3659C27.5307 27.09 26.1611 28.4878 24.4717 28.4878H19.8833C18.1938 28.4878 16.8243 27.09 16.8243 25.3659V18.3415C16.8243 17.9104 17.1667 17.561 17.589 17.561ZM27.5307 19.122V21.4634H29.0602V19.122H27.5307ZM15.2948 30.0488H29.0602V31.6098H15.2948V30.0488Z" fill="#004B93"/>
<path d="M48.2246 23.5406V9.98596H51.0567V15.9625H51.2333L56.0539 9.98596H59.4485L54.4776 16.0551L59.5074 23.5406H56.1193L52.4499 17.9679L51.0567 19.6887V23.5406H48.2246Z" fill="#004B93"/>
<path d="M63.4597 23.7326C62.8187 23.7326 62.2475 23.62 61.746 23.395C61.2446 23.1656 60.8478 22.828 60.5556 22.3824C60.2678 21.9323 60.1239 21.372 60.1239 20.7013C60.1239 20.1365 60.2264 19.6622 60.4313 19.2783C60.6363 18.8944 60.9153 18.5856 61.2685 18.3517C61.6217 18.1179 62.0229 17.9414 62.472 17.8222C62.9255 17.7031 63.4008 17.6193 63.8979 17.5707C64.4822 17.509 64.9532 17.4516 65.3107 17.3987C65.6683 17.3413 65.9277 17.2575 66.0891 17.1472C66.2504 17.0369 66.3311 16.8736 66.3311 16.6574V16.6177C66.3311 16.1985 66.2003 15.8742 65.9386 15.6448C65.6814 15.4153 65.3151 15.3006 64.8398 15.3006C64.3383 15.3006 63.9393 15.4131 63.6428 15.6381C63.3463 15.8588 63.1501 16.1367 63.0542 16.4721L60.4771 16.2603C60.6079 15.6426 60.8652 15.1087 61.2489 14.6586C61.6326 14.2041 62.1276 13.8556 62.7337 13.6129C63.3441 13.3658 64.0505 13.2423 64.8529 13.2423C65.411 13.2423 65.9452 13.3084 66.4553 13.4408C66.9699 13.5732 67.4256 13.7784 67.8224 14.0563C68.2235 14.3343 68.5397 14.6917 68.7708 15.1285C69.0019 15.5609 69.1174 16.0794 69.1174 16.6839V23.5406H66.475V22.1309H66.3965C66.2351 22.4486 66.0193 22.7287 65.7489 22.9714C65.4786 23.2097 65.1537 23.3972 64.7744 23.534C64.395 23.6664 63.9568 23.7326 63.4597 23.7326ZM64.2577 21.7867C64.6675 21.7867 65.0295 21.7051 65.3434 21.5418C65.6574 21.3742 65.9037 21.1491 66.0825 20.8667C66.2613 20.5844 66.3507 20.2645 66.3507 19.9071V18.8283C66.2635 18.8856 66.1436 18.9386 65.991 18.9871C65.8427 19.0312 65.6748 19.0731 65.4873 19.1129C65.2998 19.1481 65.1123 19.1812 64.9248 19.2121C64.7373 19.2386 64.5673 19.2629 64.4146 19.2849C64.0876 19.3335 63.802 19.4107 63.5578 19.5166C63.3136 19.6225 63.1239 19.7659 62.9888 19.9468C62.8536 20.1233 62.786 20.3439 62.786 20.6086C62.786 20.9925 62.9233 21.2859 63.1981 21.4889C63.4771 21.6874 63.8303 21.7867 64.2577 21.7867Z" fill="#004B93"/>
<path d="M76.4055 13.3746V15.4925H70.2049V13.3746H76.4055ZM71.6242 23.5406V12.64C71.6242 11.9031 71.7659 11.292 72.0494 10.8067C72.3372 10.3213 72.7296 9.95728 73.2267 9.7146C73.7238 9.47192 74.2885 9.35059 74.9208 9.35059C75.3481 9.35059 75.7384 9.38368 76.0916 9.44986C76.4491 9.51605 76.7151 9.57561 76.8895 9.62856L76.3924 11.7465C76.2834 11.7112 76.1482 11.6781 75.9869 11.6472C75.8299 11.6163 75.6686 11.6009 75.5029 11.6009C75.093 11.6009 74.8074 11.6979 74.6461 11.8921C74.4847 12.0818 74.404 12.3488 74.404 12.6929V23.5406H71.6242Z" fill="#004B93"/>
<path d="M82.0502 23.7392C81.0168 23.7392 80.1273 23.5274 79.3816 23.1038C78.6403 22.6758 78.0691 22.0713 77.6679 21.2903C77.2668 20.5049 77.0662 19.5761 77.0662 18.504C77.0662 17.4582 77.2668 16.5405 77.6679 15.7507C78.0691 14.9609 78.6338 14.3453 79.362 13.9041C80.0946 13.4629 80.9536 13.2423 81.939 13.2423C82.6018 13.2423 83.2188 13.3504 83.7901 13.5666C84.3657 13.7784 84.8671 14.0982 85.2944 14.5262C85.7261 14.9542 86.0619 15.4925 86.3017 16.1412C86.5415 16.7853 86.6615 17.5399 86.6615 18.4047V19.179H78.1781V17.4318H84.0386C84.0386 17.0258 83.9514 16.6662 83.777 16.3529C83.6026 16.0397 83.3606 15.7948 83.051 15.6183C82.7457 15.4374 82.3904 15.3469 81.9848 15.3469C81.5619 15.3469 81.1869 15.4462 80.8598 15.6448C80.5371 15.8389 80.2842 16.1014 80.1011 16.4324C79.918 16.7589 79.8242 17.1229 79.8198 17.5244V19.1857C79.8198 19.6887 79.9114 20.1233 80.0946 20.4895C80.2821 20.8557 80.5459 21.1381 80.886 21.3367C81.2261 21.5352 81.6294 21.6345 82.096 21.6345C82.4056 21.6345 82.689 21.5904 82.9463 21.5021C83.2036 21.4139 83.4238 21.2815 83.6069 21.105C83.7901 20.9285 83.9296 20.7123 84.0255 20.4564L86.6026 20.6285C86.4718 21.255 86.2036 21.8022 85.7981 22.2699C85.3969 22.7332 84.878 23.095 84.2414 23.3553C83.6091 23.6112 82.8787 23.7392 82.0502 23.7392Z" fill="#004B93"/>
<path d="M48.2246 38.4507V24.8961H53.5095C54.5255 24.8961 55.3911 25.0924 56.1062 25.4851C56.8213 25.8734 57.3664 26.4139 57.7414 27.1067C58.1207 27.795 58.3104 28.5892 58.3104 29.4893C58.3104 30.3894 58.1186 31.1836 57.7348 31.872C57.3511 32.5603 56.7952 33.0964 56.067 33.4803C55.3431 33.8641 54.4667 34.0561 53.4376 34.0561H50.0691V31.7594H52.9797C53.5248 31.7594 53.9739 31.6646 54.3271 31.4749C54.6847 31.2807 54.9507 31.0138 55.1251 30.674C55.3039 30.3299 55.3933 29.935 55.3933 29.4893C55.3933 29.0393 55.3039 28.6466 55.1251 28.3112C54.9507 27.9715 54.6847 27.7089 54.3271 27.5236C53.9696 27.3339 53.5161 27.239 52.9666 27.239H51.0567V38.4507H48.2246Z" fill="#004B93"/>
<path d="M66.264 34.1222V28.2847H69.0504V38.4507H66.3752V36.6042H66.2706C66.0438 37.1998 65.6666 37.6786 65.139 38.0404C64.6158 38.4022 63.977 38.5831 63.2226 38.5831C62.5511 38.5831 61.9602 38.4287 61.45 38.1198C60.9399 37.8109 60.5409 37.3719 60.2531 36.8027C59.9697 36.2335 59.8258 35.5518 59.8214 34.7576V28.2847H62.6078V34.2546C62.6121 34.8547 62.7713 35.329 63.0852 35.6776C63.3992 36.0262 63.82 36.2004 64.3476 36.2004C64.6834 36.2004 64.9973 36.1232 65.2895 35.9688C65.5816 35.81 65.8171 35.5761 65.9959 35.2672C66.179 34.9584 66.2684 34.5767 66.264 34.1222Z" fill="#004B93"/>
<path d="M79.3619 31.1836L76.811 31.3425C76.7674 31.1219 76.6737 30.9233 76.5298 30.7468C76.3859 30.5659 76.1962 30.4225 75.9607 30.3166C75.7296 30.2063 75.4527 30.1512 75.1301 30.1512C74.6984 30.1512 74.3343 30.2438 74.0378 30.4291C73.7412 30.61 73.593 30.8527 73.593 31.1572C73.593 31.3998 73.6889 31.605 73.8808 31.7727C74.0726 31.9404 74.4019 32.0749 74.8684 32.1764L76.6868 32.547C77.6635 32.75 78.3917 33.0765 78.8714 33.5266C79.351 33.9766 79.5908 34.5679 79.5908 35.3003C79.5908 35.9666 79.3968 36.5512 79.0087 37.0542C78.625 37.5572 78.0974 37.9499 77.4259 38.2323C76.7587 38.5103 75.9891 38.6493 75.117 38.6493C73.787 38.6493 72.7274 38.3691 71.9382 37.8087C71.1533 37.244 70.6933 36.4762 70.5581 35.5055L73.2987 35.3599C73.3815 35.7703 73.5821 36.0835 73.9004 36.2997C74.2187 36.5115 74.6264 36.6174 75.1235 36.6174C75.6119 36.6174 76.0043 36.5226 76.3009 36.3328C76.6017 36.1387 76.7543 35.8894 76.7587 35.5849C76.7543 35.329 76.6475 35.1194 76.4382 34.9562C76.2289 34.7885 75.9062 34.6605 75.4702 34.5723L73.7303 34.2215C72.7492 34.023 72.0189 33.6788 71.5392 33.189C71.0639 32.6993 70.8263 32.0749 70.8263 31.316C70.8263 30.663 71.0007 30.1004 71.3495 29.6283C71.7027 29.1562 72.1976 28.7922 72.8343 28.5362C73.4753 28.2803 74.2253 28.1524 75.0843 28.1524C76.3532 28.1524 77.3517 28.4237 78.0799 28.9664C78.8125 29.5092 79.2398 30.2482 79.3619 31.1836Z" fill="#004B93"/>
<path d="M87.5117 34.1222V28.2847H90.2981V38.4507H87.6229V36.6042H87.5183C87.2915 37.1998 86.9144 37.6786 86.3867 38.0404C85.8635 38.4022 85.2247 38.5831 84.4703 38.5831C83.7988 38.5831 83.2079 38.4287 82.6978 38.1198C82.1876 37.8109 81.7886 37.3719 81.5008 36.8027C81.2174 36.2335 81.0735 35.5518 81.0691 34.7576V28.2847H83.8555V34.2546C83.8598 34.8547 84.019 35.329 84.333 35.6776C84.6469 36.0262 85.0677 36.2004 85.5953 36.2004C85.9311 36.2004 86.245 36.1232 86.5372 35.9688C86.8293 35.81 87.0648 35.5761 87.2436 35.2672C87.4267 34.9584 87.5161 34.5767 87.5117 34.1222Z" fill="#004B93"/>
<path d="M95.0369 24.8961V38.4507H92.2506V24.8961H95.0369Z" fill="#004B93"/>
<path d="M99.8575 38.6427C99.2165 38.6427 98.6453 38.5302 98.1438 38.3051C97.6424 38.0757 97.2456 37.7381 96.9534 37.2925C96.6656 36.8424 96.5217 36.2821 96.5217 35.6114C96.5217 35.0466 96.6242 34.5723 96.8292 34.1884C97.0341 33.8046 97.3132 33.4957 97.6664 33.2618C98.0196 33.028 98.4207 32.8515 98.8699 32.7324C99.3234 32.6132 99.7987 32.5294 100.296 32.4809C100.88 32.4191 101.351 32.3617 101.709 32.3088C102.066 32.2514 102.326 32.1676 102.487 32.0573C102.648 31.947 102.729 31.7837 102.729 31.5675V31.5278C102.729 31.1086 102.598 30.7843 102.336 30.5549C102.079 30.3254 101.713 30.2107 101.238 30.2107C100.736 30.2107 100.337 30.3232 100.041 30.5483C99.7441 30.7689 99.5479 31.0469 99.452 31.3822L96.8749 31.1704C97.0058 30.5527 97.263 30.0188 97.6468 29.5687C98.0305 29.1143 98.5254 28.7657 99.1315 28.523C99.742 28.2759 100.448 28.1524 101.251 28.1524C101.809 28.1524 102.343 28.2186 102.853 28.3509C103.368 28.4833 103.823 28.6885 104.22 28.9664C104.621 29.2444 104.937 29.6018 105.169 30.0386C105.4 30.4711 105.515 30.9895 105.515 31.594V38.4507H102.873V37.041H102.794C102.633 37.3587 102.417 37.6389 102.147 37.8815C101.876 38.1198 101.552 38.3073 101.172 38.4441C100.793 38.5765 100.355 38.6427 99.8575 38.6427ZM100.655 36.6968C101.065 36.6968 101.427 36.6152 101.741 36.452C102.055 36.2843 102.302 36.0593 102.48 35.7769C102.659 35.4945 102.749 35.1746 102.749 34.8172V33.7384C102.661 33.7957 102.541 33.8487 102.389 33.8972C102.241 33.9413 102.073 33.9833 101.885 34.023C101.698 34.0583 101.51 34.0914 101.323 34.1222C101.135 34.1487 100.965 34.173 100.812 34.1951C100.485 34.2436 100.2 34.3208 99.9556 34.4267C99.7114 34.5326 99.5218 34.676 99.3866 34.8569C99.2514 35.0334 99.1838 35.254 99.1838 35.5187C99.1838 35.9026 99.3212 36.196 99.5959 36.399C99.875 36.5976 100.228 36.6968 100.655 36.6968Z" fill="#004B93"/>
<path d="M107.401 38.4507V28.2847H110.056V30.0784H110.174C110.383 29.4827 110.732 29.0128 111.22 28.6686C111.709 28.3245 112.293 28.1524 112.973 28.1524C113.662 28.1524 114.249 28.3267 114.733 28.6752C115.217 29.0194 115.54 29.4871 115.701 30.0784H115.806C116.01 29.4959 116.381 29.0304 116.917 28.6819C117.458 28.3289 118.097 28.1524 118.834 28.1524C119.771 28.1524 120.532 28.4546 121.117 29.0591C121.705 29.6592 122 30.5108 122 31.6138V38.4507H119.22V32.1698C119.22 31.605 119.072 31.1814 118.775 30.899C118.479 30.6167 118.108 30.4755 117.663 30.4755C117.157 30.4755 116.763 30.6387 116.479 30.9652C116.196 31.2873 116.054 31.7131 116.054 32.2426V38.4507H113.353V32.1102C113.353 31.6116 113.211 31.2145 112.928 30.9189C112.649 30.6233 112.28 30.4755 111.822 30.4755C111.513 30.4755 111.234 30.5549 110.985 30.7137C110.741 30.8682 110.547 31.0866 110.403 31.369C110.259 31.6469 110.187 31.9734 110.187 32.3485V38.4507H107.401Z" fill="#004B93"/>
</svg>
